<svg width="648" height="358" viewBox="0 0 648 358" fill="none" xmlns="http://www.w3.org/2000/svg">
<g filter="url(#filter0_f_1450_422)">
<path d="M550.309 309.632C550.309 315.297 443.493 319.89 311.729 319.89C179.965 319.89 73.1484 315.297 73.1484 309.632C73.1484 303.967 179.965 299.375 311.729 299.375C443.493 299.375 550.309 303.967 550.309 309.632Z" fill="black" fill-opacity="0.08"/>
</g>
<path d="M208 277V136.453C208 129.506 210.411 122.774 214.822 117.407L238.202 88.9537C243.901 82.0189 252.405 78 261.381 78H347.619C356.595 78 365.099 82.0189 370.798 88.9537L394.178 117.407C398.589 122.774 401 129.506 401 136.453V277C401 293.569 387.569 307 371 307H238C221.431 307 208 293.569 208 277Z" fill="white"/>
<path d="M256.547 116.707L244.132 90.144C242.825 87.3474 243.853 84.0155 246.509 82.4417L250.753 79.9265C251.627 79.4085 252.618 79.121 253.634 79.0909L303.373 77.6172L352.971 78.7276C353.834 78.7469 354.682 78.9521 355.458 79.329L362.117 82.5636C365.122 84.0231 366.356 87.6559 364.862 90.6439L351.759 116.85C350.743 118.883 348.666 120.167 346.393 120.167H261.983C259.653 120.167 257.534 118.818 256.547 116.707Z" fill="#FBFBFB"/>
<rect x="226.633" y="133" width="156.521" height="156.521" rx="20" fill="url(#paint0_linear_1450_422)"/>
<path d="M298.812 232.023L300.025 233.063C300.978 233.879 302.1 234.474 303.31 234.804L303.616 234.888C304.946 235.25 306.351 235.233 307.671 234.837V234.837C308.839 234.486 309.901 233.852 310.763 232.99L311.729 232.023" stroke="#555555" stroke-width="3"/>
<path d="M282.102 219.701L280.889 218.662C279.936 217.845 278.814 217.25 277.604 216.92L277.298 216.837C275.968 216.474 274.563 216.492 273.243 216.888V216.888C272.075 217.238 271.013 217.873 270.151 218.735L269.185 219.701" stroke="#555555" stroke-width="3"/>
<path d="M338.328 219.701L337.116 218.662C336.163 217.845 335.041 217.25 333.83 216.92L333.525 216.837C332.195 216.474 330.79 216.492 329.47 216.888V216.888C328.302 217.238 327.24 217.873 326.378 218.735L325.411 219.701" stroke="#555555" stroke-width="3"/>
<path d="M478.731 245.271C475.554 242.791 474.175 238.647 475.235 234.758L480.18 216.606C480.884 214.021 482.597 211.826 484.934 210.514L501.34 201.305C504.854 199.333 509.209 199.663 512.387 202.142L550.126 231.592C554.48 234.99 555.255 241.274 551.858 245.628L530.506 272.989C527.108 277.343 520.824 278.119 516.47 274.721L478.731 245.271Z" fill="white"/>
<path d="M508.114 223.869C506.151 226.385 505.56 229.443 506.427 232.19C503.552 232.017 500.729 233.333 498.766 235.849C497.281 237.756 496.601 240.165 496.875 242.548C497.149 244.93 498.355 247.091 500.229 248.556C503.671 251.242 508.954 251.857 515.932 250.382C519.122 249.701 522.244 248.712 525.254 247.429C525.39 247.367 525.511 247.273 525.603 247.154C525.696 247.035 525.758 246.896 525.785 246.748C526.297 243.517 526.498 240.248 526.384 236.988C526.119 229.862 524.238 224.886 520.796 222.2C518.919 220.739 516.53 220.094 514.153 220.407C511.775 220.72 509.604 221.965 508.114 223.869Z" fill="#4EDFCC" fill-opacity="0.8"/>
<path d="M175 148.29C127.478 215.828 152.817 276.237 176.526 304.242C179.808 308.119 185.6 308.348 189.278 304.845C240.961 255.614 215.065 185.924 189.93 148.379C186.357 143.042 178.696 143.038 175 148.29Z" fill="url(#paint1_linear_1450_422)" stroke="white" stroke-width="3"/>
<path d="M69.3516 190.13L185.982 306.761M183.323 142.855V264.211" stroke="white" stroke-width="3"/>
<g filter="url(#filter1_d_1450_422)">
<path d="M68.0712 199.044C82.3568 280.368 142.982 305.259 179.548 308.363C184.621 308.794 188.89 304.85 189.005 299.759C190.607 228.454 123.025 197.392 78.7007 188.54C72.3907 187.28 66.958 192.706 68.0712 199.044Z" fill="url(#paint2_linear_1450_422)"/>
<path d="M68.0712 199.044C82.3568 280.368 142.982 305.259 179.548 308.363C184.621 308.794 188.89 304.85 189.005 299.759C190.607 228.454 123.025 197.392 78.7007 188.54C72.3907 187.28 66.958 192.706 68.0712 199.044Z" stroke="white" stroke-width="3"/>
</g>
<path d="M186.74 307.355L70.1094 189.584" stroke="white" stroke-width="3"/>
<path d="M174.969 296.336L181.807 259.865" stroke="white"/>
<path d="M159.774 280.381L168.511 237.832M142.298 262.526L150.276 220.356M129.381 249.229L134.32 209.339M115.705 235.552L119.504 202.121M105.067 225.295L106.587 196.422M91.3906 210.479L92.5303 192.623" stroke="white"/>
<path d="M174.588 295.196L155.213 303.934M159.392 280L125.58 290.258M141.536 262.525L103.926 273.542M128.62 249.228L91.0091 256.826M114.943 234.792L81.1315 239.73M104.686 223.774H74.6731M89.8694 209.338H69.7344" stroke="white"/>
<path d="M183.706 161.469L173.828 151.592" stroke="white"/>
<path d="M183.321 175.526L168.125 160.33" stroke="white"/>
<path d="M183.322 193.001L162.047 171.727" stroke="white"/>
<path d="M183.322 210.478L155.969 183.125" stroke="white"/>
<path d="M183.322 227.953L152.93 197.561" stroke="white"/>
<path d="M183.324 245.43L149.133 211.238" stroke="white"/>
<path d="M183.328 160.331L192.445 151.213" stroke="white"/>
<path d="M183.321 174.766L197.758 160.33" stroke="white"/>
<path d="M183.321 192.241L203.836 171.727" stroke="white"/>
<path d="M184.085 209.718L208.398 184.645" stroke="white"/>
<path d="M183.326 227.193L213.719 196.801" stroke="white"/>
<path d="M184.086 244.67L216.758 211.238" stroke="white"/>
<path d="M184.848 265.184L219.039 230.992" stroke="white"/>
<path d="M187.883 285.699L217.516 256.066" stroke="white"/>
<path d="M301.852 95.1655C302.029 79.8789 313.711 69.4419 325.69 61.3349C331.419 57.458 337.888 54.7685 344.429 52.5882C350.029 50.7214 355.82 48.6709 361.744 48.3186C370.4 47.804 379.302 48.0022 387.955 48.289C399.681 48.6777 408.988 52.0507 418.82 58.281C427.235 63.613 431.403 71.9188 435.454 80.8742C439.297 89.3693 439.546 98.0642 439.546 107.203C439.546 120.057 437.442 132.65 433.408 144.859C431.087 151.886 429.658 159.148 428.457 166.444C427.476 172.403 426.107 179.675 428.812 185.36C433.38 194.958 441.16 200.433 450.249 205.107C454.818 207.457 459.361 209.064 464.214 210.681C469.611 212.48 475.049 212.808 480.64 213.646" stroke="white" stroke-width="5" stroke-linecap="round"/>
<rect x="279.062" y="91.3086" width="46.3484" height="2.27943" rx="1.13972" fill="#555555"/>
<mask id="mask0_1450_422" style="mask-type:alpha" maskUnits="userSpaceOnUse" x="0" y="0" width="648" height="358">
<rect y="358" width="358" height="648" rx="50" transform="rotate(-90 0 358)" fill="#26CFB8"/>
</mask>
<g mask="url(#mask0_1450_422)">
<circle cx="45" cy="43" r="85" fill="white" fill-opacity="0.4"/>
<circle cx="4" cy="182" r="41" fill="white" fill-opacity="0.5"/>
<circle cx="511" cy="110" r="38" fill="white" fill-opacity="0.4"/>
<circle cx="584" cy="13" r="59" fill="white" fill-opacity="0.3"/>
<circle cx="643.5" cy="363.5" r="138.5" fill="white" fill-opacity="0.6"/>
</g>
<defs>
<filter id="filter0_f_1450_422" x="69.1484" y="295.375" width="485.164" height="28.5156" filterUnits="userSpaceOnUse" color-interpolation-filters="sRGB">
<feFlood flood-opacity="0" result="BackgroundImageFix"/>
<feBlend mode="normal" in="SourceGraphic" in2="BackgroundImageFix" result="shape"/>
<feGaussianBlur stdDeviation="2" result="effect1_foregroundBlur_1450_422"/>
</filter>
<filter id="filter1_d_1450_422" x="62.4219" y="186.855" width="132.109" height="131.041" filterUnits="userSpaceOnUse" color-interpolation-filters="sRGB">
<feFlood flood-opacity="0" result="BackgroundImageFix"/>
<feColorMatrix in="SourceAlpha" type="matrix" values="0 0 0 0 0 0 0 0 0 0 0 0 0 0 0 0 0 0 127 0" result="hardAlpha"/>
<feOffset dy="4"/>
<feGaussianBlur stdDeviation="2"/>
<feComposite in2="hardAlpha" operator="out"/>
<feColorMatrix type="matrix" values="0 0 0 0 0 0 0 0 0 0 0 0 0 0 0 0 0 0 0.05 0"/>
<feBlend mode="normal" in2="BackgroundImageFix" result="effect1_dropShadow_1450_422"/>
<feBlend mode="normal" in="SourceGraphic" in2="effect1_dropShadow_1450_422" result="shape"/>
</filter>
<linearGradient id="paint0_linear_1450_422" x1="304.893" y1="289.521" x2="304.893" y2="133" gradientUnits="userSpaceOnUse">
<stop stop-color="#7CE2D4"/>
<stop offset="1" stop-color="#7CE2D4" stop-opacity="0"/>
</linearGradient>
<linearGradient id="paint1_linear_1450_422" x1="183.653" y1="138.242" x2="183.653" y2="310.75" gradientUnits="userSpaceOnUse">
<stop stop-color="#26CFB8"/>
<stop offset="1" stop-color="white"/>
</linearGradient>
<linearGradient id="paint2_linear_1450_422" x1="67.0579" y1="185.786" x2="189.215" y2="307.943" gradientUnits="userSpaceOnUse">
<stop stop-color="#26CFB8"/>
<stop offset="1" stop-color="white"/>
</linearGradient>
</defs>
</svg>
