<svg width="94" height="90" viewBox="0 0 94 90" fill="none" xmlns="http://www.w3.org/2000/svg">
<path d="M14.7309 54.2707C11.5536 51.7913 10.1752 47.6469 11.2346 43.7585L16.18 25.606C16.8843 23.0206 18.5969 20.826 20.9336 19.5144L37.3399 10.3055C40.8543 8.33286 45.2094 8.66267 48.3866 11.1421L86.126 40.5923C90.4801 43.99 91.2553 50.274 87.8576 54.628L66.506 81.9893C63.1083 86.3434 56.8243 87.1186 52.4703 83.7209L14.7309 54.2707Z" fill="white"/>
<path d="M44.1144 32.8688C42.1511 35.3847 41.5603 38.4433 42.4269 41.1898C39.5522 41.0167 36.7288 42.3332 34.7655 44.849C33.2806 46.7564 32.6007 49.1655 32.875 51.5477C33.1493 53.9299 34.3554 56.0907 36.2287 57.5562C39.6707 60.2421 44.9543 60.8571 51.9317 59.382C55.1219 58.7006 58.2438 57.7115 61.2535 56.4287C61.3904 56.3673 61.5106 56.273 61.6033 56.1542C61.6959 56.0355 61.7582 55.896 61.7845 55.7483C62.2974 52.517 62.498 49.2484 62.3836 45.9882C62.1188 38.8615 60.2381 33.8857 56.7961 31.1998C54.9193 29.7388 52.5301 29.094 50.1527 29.4069C47.7753 29.7198 45.6037 30.9648 44.1144 32.8688Z" fill="#4EDFCC" fill-opacity="0.8"/>
</svg>
