<svg width="185" height="172" viewBox="0 0 185 172" fill="none" xmlns="http://www.w3.org/2000/svg">
<path d="M2.85156 50.1655C3.02931 34.8789 14.7112 24.4419 26.6901 16.3349C32.4187 12.458 38.8878 9.76855 45.4288 7.58821C51.0292 5.72142 56.8203 3.67086 62.7444 3.31862C71.4002 2.80395 80.3024 3.00215 88.9549 3.28897C100.681 3.67769 109.988 7.05073 119.82 13.281C128.235 18.613 132.403 26.9188 136.454 35.8742C140.297 44.3693 140.546 53.0642 140.546 62.2033C140.546 75.0574 138.442 87.6495 134.408 99.8587C132.087 106.886 130.658 114.148 129.457 121.444C128.476 127.403 127.107 134.675 129.812 140.36C134.38 149.958 142.16 155.433 151.249 160.107C155.818 162.457 160.361 164.064 165.214 165.681C170.611 167.48 176.049 167.808 181.64 168.646" stroke="white" stroke-width="5" stroke-linecap="round"/>
</svg>
